<svg width="33" height="16" viewBox="0 0 33 16" fill="none" xmlns="http://www.w3.org/2000/svg">
<path d="M8 4.12903L12.6933 10.8235H3.3067L8 4.12903Z" fill="white"/>
<path fill-rule="evenodd" clip-rule="evenodd" d="M0.516129 0C0.231079 0 0 0.231079 0 0.516129V15.4839C0 15.7689 0.231079 16 0.516129 16H15.4839C15.7689 16 16 15.7689 16 15.4839V0.516129C16 0.231079 15.7689 0 15.4839 0H0.516129ZM13.4194 2.58065H2.58065V13.4194H13.4194V2.58065Z" fill="white"/>
<path d="M25 11.871L20.3067 5.17647H29.6933L25 11.871Z" fill="white"/>
<path fill-rule="evenodd" clip-rule="evenodd" d="M32.4839 16C32.7689 16 33 15.7689 33 15.4839V0.516129C33 0.23108 32.7689 4.76837e-07 32.4839 4.76837e-07H17.5161C17.2311 4.76837e-07 17 0.23108 17 0.516129V15.4839C17 15.7689 17.2311 16 17.5161 16H32.4839ZM19.5806 13.4194H30.4194V2.58065H19.5806V13.4194Z" fill="white"/>
</svg>
