<svg width="33" height="8" viewBox="0 0 33 8" fill="none" xmlns="http://www.w3.org/2000/svg">
<path d="M29.7 1.6V4.8H3.3V1.6C3.3 1.17565 3.12616 0.768688 2.81673 0.468629C2.50729 0.168571 2.08761 0 1.65 0C1.21239 0 0.792709 0.168571 0.483274 0.468629C0.173839 0.768688 0 1.17565 0 1.6V4.8C0 5.64869 0.347677 6.46262 0.966547 7.06274C1.58542 7.66286 2.42479 8 3.3 8H29.7C30.5752 8 31.4146 7.66286 32.0335 7.06274C32.6523 6.46262 33 5.64869 33 4.8V1.6C33 1.17565 32.8262 0.768688 32.5167 0.468629C32.2073 0.168571 31.7876 0 31.35 0C30.9124 0 30.4927 0.168571 30.1833 0.468629C29.8738 0.768688 29.7 1.17565 29.7 1.6Z" fill="white"/>
</svg>
